<?xml version="1.0" encoding="utf-8"?>
<!-- Generator: Adobe Illustrator 26.3.1, SVG Export Plug-In . SVG Version: 6.00 Build 0)  -->
<svg version="1.1" id="Layer_1" xmlns="http://www.w3.org/2000/svg" xmlns:xlink="http://www.w3.org/1999/xlink" x="0px" y="0px"
	 viewBox="0 0 375 588" style="enable-background:new 0 0 375 588;" xml:space="preserve">
<style type="text/css">
	.st0{fill:#7F8CFF;}
	.st1{fill:#FFFFFF;}
</style>
<rect x="252.3" y="535.1" transform="matrix(0.574 -0.8189 0.8189 0.574 -343.7795 444.6908)" class="st0" width="6.3" height="35.2"/>
<circle class="st1" cx="247" cy="559.1" r="6.5"/>
<circle class="st0" cx="134.2" cy="61.4" r="7"/>
<path class="st1" d="M421.2,75c-4-7.2-9.7-13.3-16.6-17.9c-6.9-4.6-14.7-7.5-22.9-8.5c-8.2-1-16.5,0-24.2,2.8
	c-7.7,2.8-14.7,7.4-20.4,13.4c-5.6,6-9.8,13.3-12.1,21.2c-2.3,7.9-2.7,16.3-1.2,24.4c1.5,8.1,4.9,15.7,9.9,22.3
	c5,6.5,11.5,11.8,18.9,15.4l9.8-20.4c-4.2-2-7.9-5-10.8-8.8c-2.9-3.7-4.8-8.1-5.7-12.7c-0.9-4.6-0.6-9.4,0.7-13.9s3.7-8.6,6.9-12.1
	c3.2-3.4,7.2-6,11.6-7.7c4.4-1.6,9.1-2.1,13.8-1.6c4.7,0.6,9.1,2.2,13,4.8c3.9,2.6,7.1,6.1,9.4,10.2L421.2,75z"/>
<rect x="293.1" y="36.4" transform="matrix(0.866 -0.5 0.5 0.866 21.9558 176.8008)" class="st0" width="95.6" height="22"/>
</svg>
